<mxfile host="app.diagrams.net" modified="2024-08-08T01:18:51.478Z" agent="Mozilla/5.0 (Macintosh; Intel Mac OS X 10_15_7) AppleWebKit/537.36 (KHTML, like Gecko) Chrome/127.0.0.0 Safari/537.36" version="24.6.3" etag="0ZI00oVjk5q3141Er9n-" type="github">
  <diagram name="Page-1" id="0Bnyg_5KxDAGfdB3GQrT">
    <mxGraphModel>
      <root>
        <mxCell id="0" />
        <mxCell id="1" parent="0" />
      </root>
    </mxGraphModel>
  </diagram>
</mxfile>
